<svg width="80" height="81" viewBox="0 0 80 81" fill="none" xmlns="http://www.w3.org/2000/svg">
<rect x="82.2988" y="30.5205" width="61.0415" height="61.0415" rx="8.72038" transform="rotate(120 82.2988 30.5205)" fill="#FAFAFA"/>
<circle cx="58.9327" cy="18.4411" r="8.5644" transform="rotate(5.42777 58.9327 18.4411)" fill="#B3CCFF"/>
<rect x="46.4844" y="28.7292" width="22.8384" height="28.548" rx="8.5644" transform="rotate(5.42777 46.4844 28.7292)" fill="#B3CCFF"/>
<circle cx="20.7642" cy="24.6063" r="7.71406" transform="rotate(-13.0664 20.7642 24.6063)" fill="#CCDDFF"/>
<rect x="13.0703" y="36.9521" width="20.5708" height="25.7135" rx="7.71406" transform="rotate(-13.0664 13.0703 36.9521)" fill="#CCDDFF"/>
<circle cx="40.3222" cy="14.5644" r="8.5644" fill="#E5EEFF"/>
<rect x="28.9004" y="25.9844" width="22.8384" height="28.548" rx="8.5644" fill="#E5EEFF"/>
<path d="M0 51C0 48.7909 1.79086 47 4 47H76C78.2091 47 80 48.7909 80 51V69.6667C80 71.8758 78.2091 73.6667 76 73.6667H4C1.79086 73.6667 0 71.8758 0 69.6667V51Z" fill="#FF5975"/>
<path fill-rule="evenodd" clip-rule="evenodd" d="M76 49H4C2.89543 49 2 49.8954 2 51V69.6667C2 70.7712 2.89543 71.6667 4 71.6667H76C77.1046 71.6667 78 70.7712 78 69.6667V51C78 49.8954 77.1046 49 76 49ZM4 47C1.79086 47 0 48.7909 0 51V69.6667C0 71.8758 1.79086 73.6667 4 73.6667H76C78.2091 73.6667 80 71.8758 80 69.6667V51C80 48.7909 78.2091 47 76 47H4Z" fill="white"/>
<path d="M15.84 65V63.572H17.496V59.168H16.068V58.076C16.484 57.996 16.836 57.9 17.124 57.788C17.412 57.676 17.692 57.54 17.964 57.38H19.26V63.572H20.688V65H15.84ZM23.8598 63.872V61.664H21.7478V60.416H23.8598V58.208H25.1558V60.416H27.2678V61.664H25.1558V63.872H23.8598Z" fill="white"/>
<path d="M35.9 65.144C35.636 65.144 35.368 65.08 35.096 64.952C34.832 64.816 34.584 64.62 34.352 64.364H34.304L34.16 65H32.78V56.588H34.544V58.652L34.496 59.564C34.728 59.356 34.976 59.196 35.24 59.084C35.512 58.964 35.788 58.904 36.068 58.904C36.428 58.904 36.752 58.976 37.04 59.12C37.328 59.264 37.572 59.468 37.772 59.732C37.98 59.988 38.136 60.304 38.24 60.68C38.352 61.048 38.408 61.46 38.408 61.916C38.408 62.428 38.336 62.884 38.192 63.284C38.056 63.684 37.868 64.024 37.628 64.304C37.396 64.576 37.128 64.784 36.824 64.928C36.528 65.072 36.22 65.144 35.9 65.144ZM35.492 63.704C35.796 63.704 36.056 63.568 36.272 63.296C36.488 63.016 36.596 62.568 36.596 61.952C36.596 60.88 36.252 60.344 35.564 60.344C35.212 60.344 34.872 60.524 34.544 60.884V63.32C34.704 63.464 34.864 63.564 35.024 63.62C35.184 63.676 35.34 63.704 35.492 63.704ZM39.6589 65V59.048H41.4229V65H39.6589ZM40.5349 58.172C40.2389 58.172 39.9949 58.088 39.8029 57.92C39.6109 57.744 39.5149 57.52 39.5149 57.248C39.5149 56.976 39.6109 56.756 39.8029 56.588C39.9949 56.42 40.2389 56.336 40.5349 56.336C40.8389 56.336 41.0829 56.42 41.2669 56.588C41.4589 56.756 41.5549 56.976 41.5549 57.248C41.5549 57.52 41.4589 57.744 41.2669 57.92C41.0829 58.088 40.8389 58.172 40.5349 58.172ZM44.5953 65.144C44.2913 65.144 44.0353 65.096 43.8273 65C43.6193 64.904 43.4513 64.772 43.3233 64.604C43.2033 64.428 43.1153 64.22 43.0593 63.98C43.0033 63.732 42.9753 63.456 42.9753 63.152V56.588H44.7393V63.224C44.7393 63.408 44.7713 63.536 44.8353 63.608C44.9073 63.68 44.9793 63.716 45.0513 63.716C45.0913 63.716 45.1233 63.716 45.1473 63.716C45.1793 63.716 45.2193 63.708 45.2673 63.692L45.4833 65C45.3873 65.04 45.2633 65.072 45.1113 65.096C44.9673 65.128 44.7953 65.144 44.5953 65.144ZM48.0289 65.144C47.7249 65.144 47.4689 65.096 47.2609 65C47.0529 64.904 46.8849 64.772 46.7569 64.604C46.6369 64.428 46.5489 64.22 46.4929 63.98C46.4369 63.732 46.4089 63.456 46.4089 63.152V56.588H48.1729V63.224C48.1729 63.408 48.2049 63.536 48.2689 63.608C48.3409 63.68 48.4129 63.716 48.4849 63.716C48.5249 63.716 48.5569 63.716 48.5809 63.716C48.6129 63.716 48.6529 63.708 48.7009 63.692L48.9169 65C48.8209 65.04 48.6969 65.072 48.5449 65.096C48.4009 65.128 48.2289 65.144 48.0289 65.144ZM49.8425 65V59.048H51.6065V65H49.8425ZM50.7185 58.172C50.4225 58.172 50.1785 58.088 49.9865 57.92C49.7945 57.744 49.6985 57.52 49.6985 57.248C49.6985 56.976 49.7945 56.756 49.9865 56.588C50.1785 56.42 50.4225 56.336 50.7185 56.336C51.0225 56.336 51.2665 56.42 51.4505 56.588C51.6425 56.756 51.7385 56.976 51.7385 57.248C51.7385 57.52 51.6425 57.744 51.4505 57.92C51.2665 58.088 51.0225 58.172 50.7185 58.172ZM55.7149 65.144C55.3389 65.144 54.9749 65.076 54.6229 64.94C54.2709 64.796 53.9589 64.592 53.6869 64.328C53.4229 64.064 53.2109 63.74 53.0509 63.356C52.8909 62.964 52.8109 62.52 52.8109 62.024C52.8109 61.528 52.8909 61.088 53.0509 60.704C53.2109 60.312 53.4229 59.984 53.6869 59.72C53.9589 59.456 54.2709 59.256 54.6229 59.12C54.9749 58.976 55.3389 58.904 55.7149 58.904C56.0909 58.904 56.4509 58.976 56.7949 59.12C57.1469 59.256 57.4549 59.456 57.7189 59.72C57.9909 59.984 58.2069 60.312 58.3669 60.704C58.5269 61.088 58.6069 61.528 58.6069 62.024C58.6069 62.52 58.5269 62.964 58.3669 63.356C58.2069 63.74 57.9909 64.064 57.7189 64.328C57.4549 64.592 57.1469 64.796 56.7949 64.94C56.4509 65.076 56.0909 65.144 55.7149 65.144ZM55.7149 63.716C56.0749 63.716 56.3469 63.564 56.5309 63.26C56.7149 62.956 56.8069 62.544 56.8069 62.024C56.8069 61.504 56.7149 61.092 56.5309 60.788C56.3469 60.484 56.0749 60.332 55.7149 60.332C55.3469 60.332 55.0709 60.484 54.8869 60.788C54.7109 61.092 54.6229 61.504 54.6229 62.024C54.6229 62.544 54.7109 62.956 54.8869 63.26C55.0709 63.564 55.3469 63.716 55.7149 63.716ZM59.8152 65V59.048H61.2552L61.3752 59.804H61.4232C61.6792 59.564 61.9592 59.356 62.2632 59.18C62.5672 58.996 62.9232 58.904 63.3312 58.904C63.9792 58.904 64.4472 59.116 64.7352 59.54C65.0312 59.964 65.1792 60.552 65.1792 61.304V65H63.4152V61.532C63.4152 61.1 63.3552 60.804 63.2352 60.644C63.1232 60.484 62.9392 60.404 62.6832 60.404C62.4592 60.404 62.2672 60.456 62.1072 60.56C61.9472 60.656 61.7712 60.796 61.5792 60.98V65H59.8152Z" fill="white"/>
</svg>
