<svg fill="none" xmlns="http://www.w3.org/2000/svg" viewBox="0 0 80 80">
  <rect x="51.65" y="7.77" width="50.59" height="50.59" rx="7.23" transform="rotate(78.96 51.65 7.77)" fill="#F4F4F4"/>
  <path d="M36 36.13v19.12H26V36.13h10zM50.35 26.56v28.7h-10v-28.7h10zM64.69 17v38.25h-10V17h10z" fill="#B3CCFF"/>
  <path d="M10.68 50.4h64.26A3.06 3.06 0 0178 53.44v16.83a3.06 3.06 0 01-3.06 3.06H10.68a3.06 3.06 0 01-3.06-3.06V53.45a3.06 3.06 0 013.06-3.06z" fill="#fff"/>
  <path d="M11.38 51.16h62.86c1.66 0 3 1.28 3 2.85v15.71a2.93 2.93 0 01-3 2.86H11.38c-1.65 0-2.99-1.28-2.99-2.86v-15.7a2.93 2.93 0 013-2.86z" fill="#F7B500"/>
  <path fill-rule="evenodd" clip-rule="evenodd" d="M74 25.5l-.7.7-2.3-2.3V34h-1V23.9l-2.3 2.3-.7-.7 3.5-3.5 3.5 3.5z" fill="#F7B500"/>
  <path fill-rule="evenodd" clip-rule="evenodd" d="M29.81 64.64l-2.7.94.06-2.86-1.72-2.27 2.73-.83 1.63-2.34 1.63 2.34 2.74.83-1.73 2.27.06 2.86-2.7-.94zM16.8 64.64l-2.69.94.06-2.86-1.73-2.27 2.74-.83 1.63-2.34 1.63 2.34 2.73.83-1.72 2.27.06 2.86-2.7-.94zM55.82 64.64l-2.7.94.06-2.86-1.73-2.27 2.74-.83 1.63-2.34 1.63 2.34 2.73.83-1.72 2.27.06 2.86-2.7-.94zM68.82 64.64l-2.7.94.06-2.86-1.72-2.27 2.73-.83 1.63-2.34 1.63 2.34 2.74.83-1.73 2.27.06 2.86-2.7-.94zM42.81 64.64l-2.7.94.07-2.86-1.73-2.27 2.73-.83 1.63-2.34 1.64 2.34 2.73.83-1.73 2.27.06 2.86-2.7-.94z" fill="#fff"/>
  <path fill-rule="evenodd" clip-rule="evenodd" d="M21 31.5l-.7.7-2.3-2.3V40h-1V29.9l-2.3 2.3-.7-.7 3.5-3.5 3.5 3.5zM38 20.5l-.7.7-2.3-2.3V29h-1V18.9l-2.3 2.3-.7-.7 3.5-3.5 3.5 3.5z" fill="#05F"/>
</svg>
