<svg fill="none" xmlns="http://www.w3.org/2000/svg" viewBox="0 0 80 80">
  <rect x="38.14" y="9.31" width="38.52" height="38.52" rx="4.97" transform="rotate(74.62 38.14 9.3)" fill="#FAFAFA"/>
  <path d="M24.31 45.44a12.34 12.34 0 100-24.67 12.34 12.34 0 000 24.67z" fill="#fff"/>
  <path d="M24.3 37.7a4.6 4.6 0 100-9.19 4.6 4.6 0 000 9.2z" fill="url(#paint0_linear)"/>
  <path d="M35.52 27.5a12.56 12.56 0 00-21.65-1.45l5.05 8.74a5.6 5.6 0 015.27-7.29" fill="url(#paint1_linear)"/>
  <path d="M13.88 26.04a12.56 12.56 0 009.42 19.51l5.27-8.97a5.6 5.6 0 01-9.65-1.79" fill="url(#paint2_linear)"/>
  <path d="M23.3 45.56A12.56 12.56 0 0035.53 27.5H24.2a5.6 5.6 0 014.37 9.09" fill="url(#paint3_linear)"/>
  <rect x="55.31" y="6" width="24.38" height="24.38" rx="3.15" transform="rotate(15 55.31 6)" fill="#F4F4F4"/>
  <path d="M68.58 27.56l-12.1-3.24a.9.9 0 01-.63-1.09l2.32-8.66a.9.9 0 011.09-.62l12.1 3.24a.9.9 0 01.63 1.09l-2.32 8.66a.89.89 0 01-1.1.62z" fill="#E3E3E3"/>
  <path opacity=".1" d="M63.6 21.9l-4.1-5.41-2.16 8.06 6.27-2.64z" fill="#231F20"/>
  <path d="M56.48 24.32a.88.88 0 01-.64-1.09l2.33-8.66c.12-.48.53-.46 1.01-.33s.84.33.71.79l-2.55 9.52-.86-.23z" fill="#D54B3D"/>
  <path fill-rule="evenodd" clip-rule="evenodd" d="M58.17 14.57c.12-.47.53-.46 1.01-.33s.84.31.71.79l-2.55 9.52-.86-.23a.88.88 0 01-.64-1.09l2.33-8.66zm1.6.43c.07-.26 0-.48-.62-.64-.62-.17-.79-.03-.86.24l-2.32 8.67c-.11.4.13.82.54.93l.74.2 2.52-9.4z" fill="#D72B27"/>
  <path d="M68.58 27.56l-.87-.23 2.56-9.55c.13-.47.53-.43 1.01-.3s.85.29.72.77l-2.33 8.7a.88.88 0 01-1.1.61z" fill="#D54B3D"/>
  <path fill-rule="evenodd" clip-rule="evenodd" d="M70.27 17.78c.13-.47.53-.43 1-.3.49.13.86.29.73.77l-2.33 8.69a.88.88 0 01-1.1.62l-.86-.23 2.56-9.55zm1.6.43c.09-.3-.07-.46-.62-.61-.56-.15-.77-.1-.86.22l-2.52 9.42.74.2c.4.1.83-.13.94-.54l2.33-8.69z" fill="#D72B27"/>
  <path d="M64.83 26.56l-6.29-11.11 5.07 6.46 8.3-3.34-2.24 8.36a.9.9 0 01-1.09.63l-3.75-1z" fill="url(#paint4_linear)"/>
  <path d="M63.59 21.9l-5.26-6.48c-.3-.38-.27-.95.12-1.26a.93.93 0 011.28.15l4.44 5.48 6.63-2.57a.89.89 0 011.16.52.89.89 0 01-.52 1.16l-7.85 3z" fill="#D54B3D"/>
  <path fill-rule="evenodd" clip-rule="evenodd" d="M64.17 19.77l6.64-2.55a.88.88 0 01.55-.03c.27.07.5.27.6.56a.9.9 0 01-.51 1.15l-7.85 3-5.26-6.47c-.31-.39-.28-.96.1-1.27a.92.92 0 01.8-.16.9.9 0 01.48.3l4.45 5.47zm7.24-1c.39-.16.58-.6.44-.99a.78.78 0 00-.52-.46.85.85 0 00-.49.01l-6.62 2.56-.09.03-.06-.07-4.44-5.46a.74.74 0 00-.4-.26.8.8 0 00-.7.14c-.32.25-.36.74-.1 1.08l5.21 6.4 7.77-2.98z" fill="#D72B27"/>
  <rect x="70.7" y="47.27" width="30.77" height="30.77" rx="3.97" transform="rotate(105.14 70.7 47.27)" fill="#F2F6FF"/>
  <path fill-rule="evenodd" clip-rule="evenodd" d="M53.3 53.3l-5.55 1.78 3.89 4.34-5.55 1.79-3.88-4.37 5.55-1.78-3.9-4.32 5.55-1.78 3.89 4.34zm-7.5 8.87l5.55-1.79 3.89 4.34-5.55 1.79-3.89-4.34zm5.85-2.77l5.54-1.79-3.9-4.31 5.53-1.8 3.89 4.35-5.55 1.78 3.89 4.34-5.55 1.78-3.85-4.35z" fill="#0061FF"/>
  <path fill-rule="evenodd" clip-rule="evenodd" d="M12 67v-2h1v2h2v1h-2v2h-1v-2h-2v-1h2z" fill="#FFB700"/>
  <defs>
    <linearGradient id="paint0_linear" x1="19.71" y1="28.53" x2="19.71" y2="37.71" gradientUnits="userSpaceOnUse">
      <stop stop-color="#81B4E0"/>
      <stop offset="1" stop-color="#0C5A94"/>
    </linearGradient>
    <linearGradient id="paint1_linear" x1="16.95" y1="20.55" x2="16.95" y2="30.76" gradientUnits="userSpaceOnUse">
      <stop stop-color="#F06B59"/>
      <stop offset="1" stop-color="#DF2227"/>
    </linearGradient>
    <linearGradient id="paint2_linear" x1="18.48" y1="45.03" x2="24.71" y2="37.38" gradientUnits="userSpaceOnUse">
      <stop stop-color="#388B41"/>
      <stop offset="1" stop-color="#4CB749"/>
    </linearGradient>
    <linearGradient id="paint3_linear" x1="33.57" y1="41.84" x2="31.08" y2="38.5" gradientUnits="userSpaceOnUse">
      <stop stop-color="#E4B022"/>
      <stop offset="1" stop-color="#FCD209"/>
    </linearGradient>
    <linearGradient id="paint4_linear" x1="56.19" y1="24.24" x2="69.44" y2="27.79" gradientUnits="userSpaceOnUse">
      <stop stop-opacity=".1"/>
      <stop offset="1" stop-opacity=".2"/>
    </linearGradient>
  </defs>
</svg>
