<svg fill="none" xmlns="http://www.w3.org/2000/svg" viewBox="0 0 84 84">
  <rect x=".95" y="29.45" width="61.35" height="61.35" rx="9.58" transform="rotate(-27.63 .95 29.45)" fill="#FAFAFA"/>
  <path fill-rule="evenodd" clip-rule="evenodd" d="M9 11V9h1v2h2v1h-2v2H9v-2H7v-1h2zM73 76v-2h1v2h2v1h-2v2h-1v-2h-2v-1h2z" fill="#FFB700"/>
  <path d="M14 24.98h54.42c3.08 0 5.58 2.5 5.58 5.58v30.7c0 3.08-2.5 5.58-5.58 5.58H19.58A5.58 5.58 0 0114 61.26V24.98z" fill="#E5EEFF"/>
  <path d="M14 20.8a2.8 2.8 0 012.8-2.8h25.1a2.8 2.8 0 012.8 2.8v4.18H14v-4.19z" fill="#B3CCFF"/>
  <path fill-rule="evenodd" clip-rule="evenodd" d="M22 78a16 16 0 100-32 16 16 0 000 32z" fill="#05F"/>
  <path fill-rule="evenodd" clip-rule="evenodd" d="M27.09 58.64H14.36v8.9h15.27v-8.9H27.1zm-5.1-6.37a5.19 5.19 0 015.1 5.1h3.82v11.45H13.09V57.36h3.82A5.19 5.19 0 0122 52.27zm-3.81 5.1h7.64a3.82 3.82 0 10-7.64 0zm2.55 5.08a1.27 1.27 0 112.54 0V65a1.27 1.27 0 01-2.54 0v-2.55z" fill="#fff"/>
  <path fill-rule="evenodd" clip-rule="evenodd" d="M62.45 56.45h5.72v5.72h-5.72v-5.72z" fill="#FF46FB"/>
  <path fill-rule="evenodd" clip-rule="evenodd" d="M56.72 56.45h5.73v5.72h-5.73v-5.72z" fill="#CA41FC"/>
  <path fill-rule="evenodd" clip-rule="evenodd" d="M51 56.45h5.72v5.72H51v-5.72z" fill="#8B48FE"/>
  <path fill-rule="evenodd" clip-rule="evenodd" d="M68.17 50.72v5.73h-5.72v-5.73h5.72z" fill="#81E650"/>
  <path fill-rule="evenodd" clip-rule="evenodd" d="M62.45 50.72v5.73h-5.73v-5.73h5.73z" fill="#00D267"/>
  <path fill-rule="evenodd" clip-rule="evenodd" d="M56.72 50.72v5.73H51v-5.73h5.72z" fill="#00C0FF"/>
  <path fill-rule="evenodd" clip-rule="evenodd" d="M62.45 45h5.72v5.72h-5.72V45z" fill="#FFD200"/>
  <path fill-rule="evenodd" clip-rule="evenodd" d="M56.72 45h5.73v5.72h-5.73V45z" fill="#FF8E00"/>
  <path fill-rule="evenodd" clip-rule="evenodd" d="M51 45h5.72v5.72H51V45z" fill="#FF5400"/>
</svg>
