<?xml version='1.0' encoding='utf-8'?>
<svg xmlns="http://www.w3.org/2000/svg" width="17.672mm" height="23.866mm" clip-rule="evenodd" fill-rule="evenodd" image-rendering="optimizeQuality" shape-rendering="geometricPrecision" text-rendering="geometricPrecision" version="1.0" viewBox="0 0 943 1273">
 <defs>
  <style type="text/css">
   
    .fil0 {fill:#00CCFF}
    .fil1 {fill:#336699}
    .fil2 {fill:white;fill-rule:nonzero}
   
  </style>
 </defs>
   <path class="fil0" d="m38 0h640l265 291v941c0 22-17 41-38 41h-867c-21 0-38-19-38-41v-1191c0-22 17-41 38-41z"/>
   <path class="fil1" d="m943 291h-227c-21 0-38-19-38-42v-249l265 291z"/>
  <path class="fil2" d="m196 677c7 0 13 3 18 7 4 5 7 11 7 18s-3 13-7 18c-5 5-11 7-18 7s-13-2-18-7-7-11-7-18 2-13 7-18c5-4 11-7 18-7zm111-127v19c8-8 16-14 26-18 9-4 18-6 29-6 22 0 42 9 57 26 16 17 24 39 24 66 0 25-8 47-24 64-17 18-36 26-58 26-10 0-20-2-28-5-9-4-17-10-26-18v82h-43v-236h43zm46 35c-14 0-25 5-34 14s-14 22-14 37 5 28 14 37c9 10 20 14 34 14 13 0 24-4 33-14s14-22 14-37-5-27-14-37c-8-9-20-14-33-14zm255-102h43v240h-43v-19c-9 9-18 14-26 18-9 3-18 5-28 5-22 0-42-8-58-26-16-17-25-39-25-64 0-27 8-49 24-66s35-26 58-26c10 0 20 2 29 6s18 10 26 18v-86zm-46 102c-14 0-25 5-34 14-9 10-13 22-13 37s4 27 13 37 21 14 34 14c14 0 25-4 34-14 9-9 13-22 13-37s-4-28-13-37-20-14-34-14zm112-35h16c0-23 0-37 1-41 1-9 5-17 12-22 6-6 16-9 29-9 9 0 19 2 30 7v33c-6-2-11-3-15-3-5 0-9 1-11 3s-3 5-3 10v22h27v36h-27v137h-43v-137h-16v-36z"/>
</svg>